<?xml version="1.0" encoding="UTF-8" standalone="no"?>
<!-- Created with Inkscape (http://www.inkscape.org/) -->

<svg
   width="80mm"
   height="96mm"
   viewBox="0 0 80 96"
   version="1.1"
   id="svg1"
   inkscape:version="1.3 (0e150ed6c4, 2023-07-21)"
   sodipodi:docname="libreofficelogogreygreen.svg"
   xmlns:inkscape="http://www.inkscape.org/namespaces/inkscape"
   xmlns:sodipodi="http://sodipodi.sourceforge.net/DTD/sodipodi-0.dtd"
   xmlns="http://www.w3.org/2000/svg"
   xmlns:svg="http://www.w3.org/2000/svg">
  <sodipodi:namedview
     id="namedview1"
     pagecolor="#ffffff"
     bordercolor="#000000"
     borderopacity="0.25"
     inkscape:showpageshadow="2"
     inkscape:pageopacity="0.0"
     inkscape:pagecheckerboard="0"
     inkscape:deskcolor="#d1d1d1"
     inkscape:document-units="mm"
     inkscape:zoom="0.89231433"
     inkscape:cx="147.36959"
     inkscape:cy="230.30001"
     inkscape:window-width="1600"
     inkscape:window-height="829"
     inkscape:window-x="1912"
     inkscape:window-y="-8"
     inkscape:window-maximized="1"
     inkscape:current-layer="layer1" />
  <defs
     id="defs1" />
  <g
     inkscape:label="Camada 1"
     inkscape:groupmode="layer"
     id="layer1">
    <path
       style="display:inline;fill:#f2f2f2;stroke:#f2f2f2;stroke-width:0.585885;stroke-linecap:round;stroke-linejoin:round;stroke-dasharray:none;paint-order:fill markers stroke"
       d="M 10.533944,94.379858 C 6.5158523,93.299338 3.322208,89.804337 2.4345303,85.516168 2.2516303,84.632621 2.17327,73.379066 2.17327,47.995781 2.17327,8.3315059 2.102107,10.411513 3.5505531,7.7411409 4.6879036,5.6443105 6.2957513,4.1207295 8.5503333,3.0033805 l 2.0412897,-1.011641 16.206344,-0.06601 16.206341,-0.06602 17.4578,17.4520105 17.457793,17.452009 -0.06795,24.173683 c -0.06402,22.775958 -0.0934,24.249423 -0.508074,25.483588 -1.368638,4.073344 -3.943413,6.760908 -7.553598,7.884528 -1.38981,0.43256 -2.618584,0.45057 -29.710561,0.43554 -23.910812,-0.0133 -28.458589,-0.0688 -29.545784,-0.36122 z"
       id="path4" />
    <path
       style="display:inline;fill:#f2f2f2;stroke:#f2f2f2;stroke-width:0.636125;stroke-linecap:round;stroke-linejoin:round;stroke-dasharray:none;stroke-opacity:1;paint-order:fill markers stroke"
       d="M 66.954118,14.463777 56.14458,1.6596155 H 67.014499 77.884414 V 14.463777 c 0,7.042288 -0.0272,12.804161 -0.06037,12.804161 -0.03317,0 -4.924671,-5.761873 -10.869916,-12.804161 z"
       id="path5" />
    <path
       style="display:inline;fill:#cccccc;stroke:#cccccc;stroke-width:0.586726;stroke-linecap:round;stroke-linejoin:round;stroke-dasharray:none;stroke-opacity:1;paint-order:fill markers stroke"
       d="M 64.946876,14.483285 52.068426,1.601717 53.737135,1.61296 56.089909,1.62424 67.3707,12.774276 l 10.538417,10.407669 -0.01276,2.462639 -0.07109,1.720267 z"
       id="path6"
       sodipodi:nodetypes="ccccccccc" />
    <path
       style="display:inline;fill:#cccccc;stroke:none;stroke-width:1.47907;stroke-linecap:round;stroke-linejoin:round;stroke-dasharray:none;stroke-opacity:1;paint-order:fill markers stroke"
       d="M 22.560579,95.073808 C 15.690655,95.021168 11.497721,94.820828 11.069681,94.768998 8.3289223,94.437138 5.3125256,92.286768 3.6496951,89.466457 2.7181088,87.8864 2.0888288,86.199802 2.0888288,84.824543 l -0.058929,-1.713335 1.1698006,1.750105 c 1.8666862,2.792705 4.0794059,5.543391 6.9111476,6.445195 1.161116,0.36977 4.239975,0.43329 24.814806,0.51195 22.335605,0.0854 33.470903,-0.0335 34.753602,-0.370856 0.902621,-0.237456 2.50981,-1.01062 3.328836,-1.601406 1.410884,-1.0177 3.469696,-2.70036 4.359827,-4.452952 l 0.5662,-1.048032 -0.03194,0.767528 c -0.04076,0.979464 -0.792646,3.293414 -1.867627,4.808455 -2.091893,2.948263 -4.220716,4.135553 -6.60974,4.815713 -1.397395,0.39784 -19.290694,0.5483 -46.86427,0.3369 z"
       id="path7"
       sodipodi:nodetypes="sssscsssssscssss" />
    <path
       style="display:inline;fill:#ececec;stroke:none;stroke-width:1.74045;stroke-linecap:round;stroke-linejoin:round;stroke-dasharray:none;stroke-opacity:1;paint-order:fill markers stroke"
       d="m 48.554774,65.121674 v -7.213078 h 1.390019 1.390023 v 7.213078 7.213086 h -1.390023 -1.390019 z"
       id="path11" />
    <path
       style="display:inline;fill:#ececec;stroke:none;stroke-width:1.74045;stroke-linecap:round;stroke-linejoin:round;stroke-dasharray:none;stroke-opacity:1;paint-order:fill markers stroke"
       d="M 42.694142,66.586835 V 60.83891 h 1.390023 1.390019 v 5.747925 5.747925 h -1.390019 -1.390023 z"
       id="path12" />
    <path
       style="display:inline;fill:#ececec;stroke:none;stroke-width:1.74045;stroke-linecap:round;stroke-linejoin:round;stroke-dasharray:none;stroke-opacity:1;paint-order:fill markers stroke"
       d="m 54.415402,69.517148 v -2.81761 h 1.390023 1.390019 v 2.81761 2.817612 h -1.390019 -1.390023 z"
       id="path13" />
    <path
       style="display:inline;fill:#ececec;stroke:none;stroke-width:1.74045;stroke-linecap:round;stroke-linejoin:round;stroke-dasharray:none;stroke-opacity:1;paint-order:fill markers stroke"
       d="m 60.27603,68.051988 v -4.282764 h 1.352455 1.35245 v 4.282764 4.282772 h -1.35245 -1.352455 z"
       id="path14" />
    <path
       style="display:inline;fill:#469b61;stroke:#469b61;stroke-width:1.74045;stroke-linecap:round;stroke-linejoin:round;stroke-dasharray:none;stroke-opacity:1;paint-order:fill markers stroke;fill-opacity:1"
       d="m 45.62446,50.507669 v -1.39002 h 4.320333 4.320337 v 1.39002 1.390027 H 49.944793 45.62446 Z"
       id="path15" />
    <path
       style="display:inline;fill:#469b61;fill-opacity:1;stroke:#469b61;stroke-width:0.542771;stroke-linecap:round;stroke-linejoin:round;stroke-dasharray:none;stroke-opacity:1;paint-order:fill markers stroke"
       d="m 45.645846,44.414014 v -1.601666 h 4.298947 4.298951 v 1.601666 1.601663 h -4.298951 -4.298947 z"
       id="path16" />
    <path
       style="display:inline;fill:#469b61;stroke:#469b61;stroke-width:1.74;stroke-linecap:round;stroke-linejoin:round;stroke-dasharray:none;stroke-opacity:1;paint-order:fill markers stroke;fill-opacity:1"
       d="m 33.978333,44.68461 v -1.352455 h 4.282769 4.282768 v 1.352455 1.352453 h -4.282768 -4.282769 z"
       id="path17" />
    <path
       style="display:inline;fill:#469b61;stroke:#469b61;stroke-width:1.74045;stroke-linecap:round;stroke-linejoin:round;stroke-dasharray:none;stroke-opacity:1;paint-order:fill markers stroke;fill-opacity:1"
       d="m 33.978333,50.507669 v -1.39002 h 4.282769 4.282768 v 1.39002 1.390027 h -4.282768 -4.282769 z"
       id="path18" />
    <path
       style="display:inline;fill:#469b61;stroke:#469b61;stroke-width:1.74045;stroke-linecap:round;stroke-linejoin:round;stroke-dasharray:none;stroke-opacity:1;paint-order:fill markers stroke;fill-opacity:1"
       d="m 22.257075,44.68461 v -1.352455 h 4.320335 4.320336 v 1.352455 1.352453 H 26.57741 22.257075 Z"
       id="path19" />
    <path
       style="display:inline;fill:#469b61;stroke:#469b61;stroke-width:1.74045;stroke-linecap:round;stroke-linejoin:round;stroke-dasharray:none;stroke-opacity:1;paint-order:fill markers stroke;fill-opacity:1"
       d="m 22.257075,50.507669 v -1.39002 h 4.320335 4.320336 v 1.39002 1.390027 H 26.57741 22.257075 Z"
       id="path20" />
    <path
       style="display:inline;fill:#469b61;stroke:#469b61;stroke-width:1.74045;stroke-linecap:round;stroke-linejoin:round;stroke-dasharray:none;stroke-opacity:1;paint-order:fill markers stroke;fill-opacity:1"
       d="m 22.257075,56.3683 v -1.390022 h 4.320335 4.320336 V 56.3683 57.75832 H 26.57741 22.257075 Z"
       id="path21" />
    <path
       style="display:inline;fill:#469b61;stroke:#469b61;stroke-width:1.74045;stroke-linecap:round;stroke-linejoin:round;stroke-dasharray:none;stroke-opacity:1;paint-order:fill markers stroke;fill-opacity:1"
       d="m 33.978333,56.3683 v -1.390022 h 3.813166 3.813167 l -0.338113,0.166108 c -0.443933,0.218096 -1.064306,0.842011 -1.300301,1.307721 -0.103654,0.204543 -0.229809,0.582101 -0.280352,0.838998 L 39.594,57.758202 H 36.786165 33.97833 Z"
       id="path22" />
    <path
       style="display:inline;fill:#469b61;stroke:#469b61;stroke-width:1.74045;stroke-linecap:round;stroke-linejoin:round;stroke-dasharray:none;stroke-opacity:1;paint-order:fill markers stroke;fill-opacity:1"
       d="M 22.257075,62.228929 V 60.83891 h 4.320335 4.320336 v 1.390019 1.390023 H 26.57741 22.257075 Z"
       id="path23" />
    <path
       style="display:inline;fill:#469b61;stroke:#469b61;stroke-width:1.74045;stroke-linecap:round;stroke-linejoin:round;stroke-dasharray:none;stroke-opacity:1;paint-order:fill markers stroke;fill-opacity:1"
       d="M 33.978333,62.228929 V 60.83891 h 2.81761 2.817609 v 1.390019 1.390023 h -2.817609 -2.81761 z"
       id="path24" />
    <path
       style="display:inline;fill:#999999;stroke:none;stroke-width:0.195294;stroke-linecap:round;stroke-linejoin:round;stroke-dasharray:none;stroke-opacity:1;paint-order:fill markers stroke"
       d="M 28.756362,66.47505 21.468143,66.43656 21.037176,66.234581 C 20.473848,65.970566 19.903339,65.392448 19.62452,64.803078 l -0.222504,-0.470332 -5.2e-5,-10.903452 -4.8e-5,-10.903448 0.267038,-0.533773 c 0.33225,-0.664132 0.852446,-1.140197 1.535406,-1.405153 l 0.489213,-0.189793 16.680254,0.02114 16.680251,0.02115 0.433192,0.21263 c 0.59921,0.294118 1.144211,0.846373 1.402403,1.42107 l 0.21121,0.470117 0.05363,6.142391 0.05364,6.142392 H 45.480531 33.752924 v 1.54029 1.540296 h 2.930315 3.373224 v 1.390018 1.390024 h -3.373224 -2.930315 v 1.54029 1.540296 h 2.930315 3.373224 v 1.390023 1.390019 l -2.227397,-0.01787 c -0.981484,-0.0079 -5.064183,-0.03517 -9.072704,-0.05635 z m 2.291656,-4.246121 V 60.688634 H 26.57741 22.106804 v 1.540295 1.540295 h 4.470606 4.470608 z m 0,-5.860629 V 54.82801 H 26.57741 22.106804 v 1.54029 1.540296 h 4.470606 4.470608 z m 0,-5.860631 V 48.967378 H 26.57741 22.106804 v 1.540291 1.540294 h 4.470606 4.470608 z m 11.646124,0 v -1.540291 h -4.47061 -4.470608 v 1.540291 1.540294 h 4.470608 4.47061 z m 11.72126,0 v -1.540291 h -4.470609 -4.470609 v 1.540291 1.540294 h 4.470609 4.470609 z M 31.048018,44.64704 V 43.106749 H 26.57741 22.106804 v 1.540291 1.540295 h 4.470606 4.470608 z m 11.646124,-8.02e-4 v -1.540889 l -4.451826,0.01937 -4.451823,0.01937 -0.02034,1.521511 -0.02034,1.52151 h 4.472164 4.472168 z m 11.72126,8.02e-4 v -1.540291 h -4.470609 -4.470609 v 1.540291 1.540295 h 4.470609 4.470609 z"
       id="path9"
       sodipodi:nodetypes="scsscccsscccsscccccccccccccccccccsscccccccccccccccccccccccccccccccccccccccccccccccccccccccccccccccccccccccc" />
    <path
       style="display:inline;fill:#cccccc;stroke:none;stroke-width:0.195294;stroke-linecap:round;stroke-linejoin:round;stroke-dasharray:none;stroke-opacity:1;paint-order:fill markers stroke"
       d="M 41.998825,75.033546 C 41.185747,74.840093 40.285977,74.04951 39.995609,73.273423 39.840482,72.858816 39.838961,72.778072 39.838961,64.940791 v -7.913962 l 0.265607,-0.53091 c 0.346672,-0.692952 0.901469,-1.207204 1.591902,-1.475548 l 0.509287,-0.197941 10.782057,0.02143 10.782053,0.02143 0.495083,0.242262 c 0.618445,0.302626 1.133805,0.84068 1.429173,1.492092 l 0.221067,0.487548 -0.02074,7.980537 -0.02074,7.98054 -0.25414,0.46862 c -0.312686,0.576568 -0.851711,1.092312 -1.420044,1.358685 l -0.429633,0.201372 -10.744488,0.01181 c -6.092995,0.0066 -10.866606,-0.01721 -11.026561,-0.05527 z M 45.62446,66.436244 V 60.538043 H 44.084165 42.54387 v 5.898201 5.898196 h 1.540295 1.540295 z m 5.860628,-1.465161 v -7.363354 h -1.540295 -1.540295 v 7.363354 7.363357 h 1.540295 1.540295 z m 5.860628,4.395478 V 66.398675 H 55.805425 54.26513 v 2.967886 2.967879 h 1.540295 1.540291 z M 63.13121,67.9014 v -4.433039 h -1.502725 -1.502727 v 4.433039 4.43304 h 1.502727 1.502725 z"
       id="path10" />
  </g>
</svg>
