<?xml version="1.0" encoding="UTF-8" standalone="no"?>
<!-- Uploaded to: SVG Repo, www.svgrepo.com, Generator: SVG Repo Mixer Tools -->

<svg
   fill="#000000"
   version="1.1"
   id="Capa_1"
   width="110"
   height="100"
   viewBox="0 0 53.92599 49.02363"
   xml:space="preserve"
   sodipodi:docname="refreshpageyellow.svg"
   inkscape:version="1.3 (0e150ed6c4, 2023-07-21)"
   xmlns:inkscape="http://www.inkscape.org/namespaces/inkscape"
   xmlns:sodipodi="http://sodipodi.sourceforge.net/DTD/sodipodi-0.dtd"
   xmlns="http://www.w3.org/2000/svg"
   xmlns:svg="http://www.w3.org/2000/svg"><defs
   id="defs5" /><sodipodi:namedview
   id="namedview5"
   pagecolor="#ffffff"
   bordercolor="#000000"
   borderopacity="0.25"
   inkscape:showpageshadow="2"
   inkscape:pageopacity="0.0"
   inkscape:pagecheckerboard="0"
   inkscape:deskcolor="#d1d1d1"
   inkscape:zoom="1.3754699"
   inkscape:cx="170.12368"
   inkscape:cy="50.528187"
   inkscape:window-width="1600"
   inkscape:window-height="829"
   inkscape:window-x="1912"
   inkscape:window-y="-8"
   inkscape:window-maximized="1"
   inkscape:current-layer="Capa_1" />&#10;<g
   id="g5"
   style="fill:#ffff00;fill-opacity:1"
   transform="matrix(0.12528901,0,0,0.12528901,2.287496,0.214389)">&#10;	<g
   id="g4"
   style="fill:#ffff00;fill-opacity:1">&#10;		<g
   id="g3"
   style="fill:#ffff00;fill-opacity:1">&#10;			<g
   id="g2"
   style="fill:#ffff00;fill-opacity:1">&#10;				<path
   d="m 272.473,178.455 c -1.428,-1.271 -3.496,-1.703 -5.312,-1.101 l -7.014,2.318 c -16.054,-22.044 -40.867,-34.66 -68.262,-34.66 -27.15,0 -52.813,13.159 -68.648,35.202 -0.861,1.2 -1.198,2.721 -0.924,4.172 0.275,1.454 1.145,2.747 2.384,3.548 l 13.203,8.54 c 0.881,0.571 1.9,0.872 2.946,0.872 1.718,0 3.352,-0.825 4.369,-2.208 11.039,-14.982 28.05,-23.575 46.67,-23.575 15.479,0 30.335,6.198 41.125,17.082 l -4.224,1.396 c -1.834,0.606 -3.217,2.159 -3.608,4.05 -0.393,1.893 0.261,3.866 1.703,5.152 l 30.17,26.884 c 0.994,0.887 2.277,1.375 3.609,1.375 0.584,0 1.158,-0.093 1.701,-0.272 1.836,-0.606 3.219,-2.158 3.61,-4.052 l 8.201,-39.573 c 0.394,-1.89 -0.258,-3.864 -1.699,-5.15 z"
   id="path1"
   style="fill:#ffff00;fill-opacity:1" />&#10;				<path
   d="m 267.492,259.553 -13.205,-8.543 c -0.881,-0.568 -1.898,-0.871 -2.943,-0.871 -1.719,0 -3.354,0.826 -4.371,2.209 -11.041,14.982 -28.051,23.576 -46.67,23.576 -15.479,0 -30.333,-6.198 -41.124,-17.082 l 4.223,-1.396 c 1.834,-0.607 3.217,-2.16 3.609,-4.053 0.392,-1.892 -0.261,-3.863 -1.703,-5.149 L 135.137,221.36 c -1.429,-1.273 -3.529,-1.696 -5.311,-1.103 -1.835,0.605 -3.218,2.157 -3.611,4.052 l -8.202,39.571 c -0.392,1.892 0.261,3.864 1.703,5.15 1.427,1.271 3.495,1.703 5.313,1.102 l 7.013,-2.317 c 16.052,22.044 40.867,34.66 68.261,34.66 27.15,0 52.813,-13.16 68.648,-35.202 0.861,-1.199 1.197,-2.721 0.924,-4.173 -0.272,-1.453 -1.145,-2.746 -2.383,-3.547 z"
   id="path2"
   style="fill:#ffff00;fill-opacity:1" />&#10;			</g>&#10;			<path
   d="M 368.621,17.953 H 23.568 C 10.573,17.953 0,28.526 0,41.522 v 309.146 c 0,12.996 10.573,23.568 23.568,23.568 h 345.053 c 12.996,0 23.568,-10.572 23.568,-23.568 V 41.523 c 0,-12.996 -10.574,-23.57 -23.568,-23.57 z m -71.06,39.577 c 0,-4.806 3.896,-8.702 8.701,-8.702 h 8.703 c 4.808,0 8.703,3.896 8.703,8.702 v 9.863 c 0,4.806 -3.896,8.702 -8.703,8.702 h -8.703 c -4.805,0 -8.701,-3.896 -8.701,-8.702 z m -40.467,0 c 0,-4.806 3.898,-8.702 8.703,-8.702 h 8.701 c 4.807,0 8.703,3.896 8.703,8.702 v 9.863 c 0,4.806 -3.896,8.702 -8.703,8.702 h -8.701 c -4.805,0 -8.703,-3.896 -8.703,-8.702 z M 363.906,345.953 H 28.282 V 102.237 h 335.622 v 243.716 z m 0.227,-278.56 c 0,4.806 -3.896,8.702 -8.701,8.702 h -8.703 c -4.807,0 -8.702,-3.896 -8.702,-8.702 V 57.53 c 0,-4.806 3.896,-8.702 8.702,-8.702 h 8.703 c 4.806,0 8.701,3.896 8.701,8.702 z"
   id="path3"
   style="fill:#ffff00;fill-opacity:1" />&#10;		</g>&#10;	</g>&#10;</g>&#10;</svg>
