<?xml version="1.0" encoding="UTF-8" standalone="no"?>
<!-- Uploaded to: SVG Repo, www.svgrepo.com, Generator: SVG Repo Mixer Tools -->

<svg
   fill="#000000"
   version="1.1"
   id="Capa_1"
   width="110"
   height="100"
   viewBox="0 0 53.92599 49.02363"
   xml:space="preserve"
   sodipodi:docname="refreshpageanimation.svg"
   inkscape:version="1.3 (0e150ed6c4, 2023-07-21)"
   inkscape:export-filename="refreshpagetest.png"
   inkscape:export-xdpi="96"
   inkscape:export-ydpi="96"
   xmlns:inkscape="http://www.inkscape.org/namespaces/inkscape"
   xmlns:sodipodi="http://sodipodi.sourceforge.net/DTD/sodipodi-0.dtd"
   xmlns="http://www.w3.org/2000/svg"
   xmlns:svg="http://www.w3.org/2000/svg"><defs
   id="defs5">&#10;				&#10;				&#10;			&#10;			&#10;			&#10;		&#10;		&#10;	&#10;	&#10;</defs><sodipodi:namedview
   id="namedview5"
   pagecolor="#ffffff"
   bordercolor="#000000"
   borderopacity="0.25"
   inkscape:showpageshadow="2"
   inkscape:pageopacity="0.0"
   inkscape:pagecheckerboard="0"
   inkscape:deskcolor="#d1d1d1"
   inkscape:zoom="1.3754699"
   inkscape:cx="170.48719"
   inkscape:cy="50.528187"
   inkscape:window-width="1600"
   inkscape:window-height="829"
   inkscape:window-x="1912"
   inkscape:window-y="-8"
   inkscape:window-maximized="1"
   inkscape:current-layer="Capa_1" />&#10;<g
   id="setas"><path
     d="m 35.801304,32.733527 -1.654442,-1.070344 c -0.110379,-0.07116 -0.237798,-0.109126 -0.368725,-0.109126 -0.215372,0 -0.420219,0.103488 -0.547638,0.276763 -1.383316,1.87708 -3.514482,2.953814 -5.847238,2.953814 -1.939349,0 -3.800392,-0.776541 -5.152386,-2.140187 l 0.529096,-0.174904 c 0.22978,-0.07605 0.403055,-0.270624 0.452168,-0.507796 0.04911,-0.237047 -0.0327,-0.483991 -0.213367,-0.645113 l -3.780095,-3.36827 c -0.179038,-0.159493 -0.442145,-0.21249 -0.66541,-0.138194 -0.229905,0.0758 -0.40318,0.270249 -0.452419,0.507672 l -1.02762,4.957811 c -0.04911,0.237047 0.0327,0.484117 0.213367,0.645238 0.178788,0.159243 0.437885,0.213368 0.665661,0.138069 l 0.878651,-0.290295 c 2.01114,2.761871 5.120186,4.342517 8.552354,4.342517 3.401596,0 6.616888,-1.648803 8.60084,-4.410423 0.107873,-0.150222 0.14997,-0.340912 0.115767,-0.522831 -0.03408,-0.182045 -0.143456,-0.344044 -0.298564,-0.444401 z"
     id="seta-baixo" /><path
     d="m 36.425368,22.572839 c -0.178912,-0.159242 -0.43801,-0.213367 -0.665535,-0.137943 l -0.878777,0.29042 c -2.01139,-2.761871 -5.120186,-4.342517 -8.552478,-4.342517 -3.401597,0 -6.616889,1.648678 -8.60084,4.410424 -0.107874,0.150346 -0.150097,0.340911 -0.115767,0.522705 0.03445,0.182171 0.143456,0.344169 0.298689,0.444526 l 1.65419,1.069968 c 0.11038,0.07154 0.23805,0.109252 0.369102,0.109252 0.215246,0 0.419969,-0.103363 0.547388,-0.276638 1.383065,-1.87708 3.514356,-2.953689 5.847238,-2.953689 1.939348,0 3.800642,0.776542 5.15251,2.140187 l -0.529221,0.174904 c -0.22978,0.07593 -0.403054,0.270499 -0.452042,0.50742 -0.04924,0.237172 0.0327,0.484368 0.213367,0.645489 l 3.779969,3.36827 c 0.124538,0.111131 0.285283,0.172272 0.452168,0.172272 0.07317,0 0.145085,-0.01165 0.213117,-0.03408 0.230031,-0.07592 0.403305,-0.270374 0.452293,-0.507671 l 1.027495,-4.958062 c 0.04936,-0.236797 -0.03232,-0.484117 -0.212866,-0.645239 z"
     id="seta-cima" /></g><path
   d="M 48.471656,2.4637026 H 5.2403074 c -1.6281307,0 -2.9528114,1.3246807 -2.9528114,2.9529367 V 44.149236 c 0,1.628256 1.3246807,2.952811 2.9528114,2.952811 H 48.471656 c 1.628256,0 2.952812,-1.324555 2.952812,-2.952811 V 5.4167646 c 0,-1.628256 -1.324806,-2.953062 -2.952812,-2.953062 z m -8.903037,4.9585631 c 0,-0.6021389 0.488126,-1.0902649 1.09014,-1.0902649 h 1.09039 c 0.60239,0 1.09039,0.488126 1.09039,1.0902649 v 1.2357256 c 0,0.6021389 -0.488126,1.0902649 -1.09039,1.0902649 h -1.09039 c -0.602014,0 -1.09014,-0.488126 -1.09014,-1.0902649 z m -5.07007,0 c 0,-0.6021389 0.488376,-1.0902649 1.09039,-1.0902649 h 1.09014 c 0.602264,0 1.09039,0.488126 1.09039,1.0902649 v 1.2357256 c 0,0.6021389 -0.488126,1.0902649 -1.09039,1.0902649 h -1.09014 c -0.602014,0 -1.09039,-0.488126 -1.09039,-1.0902649 z M 47.880918,43.558498 H 5.8309198 V 13.023562 H 47.880668 v 30.534936 z m 0.02844,-34.9005067 c 0,0.6021389 -0.488126,1.0902649 -1.09014,1.0902649 h -1.09039 c -0.602264,0 -1.090265,-0.488126 -1.090265,-1.0902649 V 7.4222657 c 0,-0.6021389 0.488126,-1.0902649 1.090265,-1.0902649 h 1.09039 c 0.602139,0 1.09014,0.488126 1.09014,1.0902649 z"
   id="tela" />&#10;</svg>
