<?xml version="1.0" encoding="UTF-8" standalone="no"?>
<svg
   height="300"
   width="250"
   viewBox="-15.60015 -32 28.166875 72"
   version="1.1"
   id="svg33"
   sodipodi:docname="LibreOfficeCalc-Logo-pequeno.svg"
   inkscape:version="1.3 (0e150ed6c4, 2023-07-21)"
   xmlns:inkscape="http://www.inkscape.org/namespaces/inkscape"
   xmlns:sodipodi="http://sodipodi.sourceforge.net/DTD/sodipodi-0.dtd"
   xmlns:xlink="http://www.w3.org/1999/xlink"
   xmlns="http://www.w3.org/2000/svg"
   xmlns:svg="http://www.w3.org/2000/svg">
  <defs
     id="defs33" />
  <sodipodi:namedview
     id="namedview33"
     pagecolor="#ffffff"
     bordercolor="#000000"
     borderopacity="0.25"
     inkscape:showpageshadow="2"
     inkscape:pageopacity="0.0"
     inkscape:pagecheckerboard="0"
     inkscape:deskcolor="#d1d1d1"
     inkscape:zoom="0.74"
     inkscape:cx="362.16216"
     inkscape:cy="392.56757"
     inkscape:window-width="1600"
     inkscape:window-height="829"
     inkscape:window-x="1912"
     inkscape:window-y="-8"
     inkscape:window-maximized="1"
     inkscape:current-layer="svg33" />
  <linearGradient
     id="a">
    <stop
       stop-color="#18a303"
       offset="0"
       id="stop1" />
    <stop
       stop-color="#43c330"
       offset="1"
       id="stop2" />
  </linearGradient>
  <linearGradient
     y2="6"
     y1="122"
     xlink:href="#a"
     x2="458"
     x1="546"
     gradientUnits="userSpaceOnUse"
     id="d"
     gradientTransform="matrix(0.47141651,0,0,0.47141651,-238.07047,-25.298654)" />
  <linearGradient
     y2="83.998001"
     y1="109.999"
     x2="508.06201"
     x1="508.06201"
     gradientUnits="userSpaceOnUse"
     id="e"
     gradientTransform="matrix(0.47141651,0,0,0.47141651,-238.07047,-25.298654)">
    <stop
       stop-color="#727272"
       offset="0"
       id="stop3" />
    <stop
       stop-color="#9a9a9a"
       offset="1"
       id="stop4" />
  </linearGradient>
  <linearGradient
     y2="-1082.3409"
     y1="-1064.799"
     x2="829.36102"
     x1="829.36102"
     gradientUnits="userSpaceOnUse"
     gradientTransform="matrix(0.44724227,0,0,0.61284147,-374.0204,677.9261)"
     id="f">
    <stop
       stop-color="#e4e4e4"
       offset="0"
       id="stop5" />
    <stop
       stop-color="#f9f9f9"
       offset="1"
       id="stop6" />
  </linearGradient>
  <linearGradient
     y2="-1068.787"
     y1="-1078.644"
     x2="525.63898"
     x1="525.63898"
     gradientUnits="userSpaceOnUse"
     gradientTransform="matrix(0.3367281,0,0,-0.73331193,-179.11041,-765.94303)"
     id="g">
    <stop
       stop-color="#63bbee"
       offset="0"
       id="stop7" />
    <stop
       stop-color="#aadcf7"
       offset="1"
       id="stop8" />
  </linearGradient>
  <linearGradient
     y2="85.999001"
     y1="95.029999"
     x2="512.65601"
     x1="512.65601"
     gradientUnits="userSpaceOnUse"
     id="h"
     gradientTransform="matrix(0.47141651,0,0,0.47141651,-238.07047,-25.298654)">
    <stop
       stop-color="#a33e03"
       offset="0"
       id="stop9" />
    <stop
       stop-color="#c15414"
       offset="1"
       id="stop10" />
  </linearGradient>
  <linearGradient
     y2="-1068.787"
     y1="-1078.644"
     x2="525.63898"
     x1="525.63898"
     gradientUnits="userSpaceOnUse"
     gradientTransform="matrix(0.3367281,0,0,-0.99521214,-175.33908,-1048.3027)"
     id="i">
    <stop
       stop-color="#f09e6f"
       offset="0"
       id="stop11" />
    <stop
       stop-color="#f9cfb5"
       offset="1"
       id="stop12" />
  </linearGradient>
  <linearGradient
     y2="-1068.787"
     y1="-1078.644"
     x2="525.63898"
     x1="525.63898"
     gradientUnits="userSpaceOnUse"
     gradientTransform="matrix(0.3367281,0,0,-0.41903271,-171.56775,-427.10768)"
     id="j">
    <stop
       stop-color="#f5ce53"
       offset="0"
       id="stop13" />
    <stop
       stop-color="#fde9a9"
       offset="1"
       id="stop14" />
  </linearGradient>
  <linearGradient
     y2="-1068.787"
     y1="-1078.644"
     x2="525.63898"
     x1="525.63898"
     gradientUnits="userSpaceOnUse"
     gradientTransform="matrix(0.3367281,0,0,-0.62855378,-167.79642,-652.99635)"
     id="k">
    <stop
       stop-color="#8ee780"
       offset="0"
       id="stop15" />
    <stop
       stop-color="#ccf4c6"
       offset="1"
       id="stop16" />
  </linearGradient>
  <linearGradient
     gradientTransform="matrix(0.47141651,0,0,0.47141651,-31.590503,-26.241488)"
     y2="6"
     y1="122"
     x2="20.000999"
     x1="108.001"
     gradientUnits="userSpaceOnUse"
     id="c">
    <stop
       stop-color="#e6e6e6"
       offset="0"
       id="stop17" />
    <stop
       stop-color="#fff"
       offset="1"
       id="stop18" />
  </linearGradient>
  <linearGradient
     y2="977.117"
     y1="991.62097"
     xlink:href="#a"
     x2="111.75"
     x1="122.75"
     gradientUnits="userSpaceOnUse"
     gradientTransform="matrix(3.7712095,0,0,3.7702855,-443.59299,-3707.4232)"
     id="b" />
  <path
     fill="url(#b)"
     d="m -23.457154,-26.241488 c -0.117855,0 -0.235708,0.0052 -0.353563,0.0165 -1.728684,0.329991 -2.152016,1.068229 -2.121374,2.827556 v 54.669701 c 0,1.973822 0.854207,2.827558 2.828499,2.827558 h 43.369376 c 1.974764,0 2.827556,-0.853264 2.827556,-2.827558 V -2.5839211 a 3.8170595,3.8170595 0 0 0 -1.060687,-2.709702 L 2.1582043,-25.163829 a 3.8189451,3.8189451 0 0 0 -2.71064501,-1.060688 H -23.103592 a 3.4073985,3.4073985 0 0 0 -0.353562,-0.01697 z m 33.0038692,0.0066 c -0.098997,0 -0.1979947,0.008 -0.295578,0.0231 -1.2549104,0.401647 -1.6772998,2.311827 -0.7099534,3.210347 l 11.3592522,11.417677 c 1.049373,1.000345 3.138691,0.144725 3.193847,-1.308181 v -11.417678 c 0,-0.996574 -0.90182,-1.902165 -1.892737,-1.902165 H 9.8432368 a 1.9516643,1.9516643 0 0 0 -0.2965216,-0.02357 z"
     id="path18"
     style="fill:url(#b);stroke-width:0.471416" />
  <path
     fill="url(#c)"
     d="M -23.104535,-23.412988 V 31.271326 H 20.265784 V -2.6706617 L -0.47654271,-23.412988 Z"
     id="path19"
     style="fill:url(#c);stroke-width:0.471416" />
  <path
     fill="url(#d)"
     d="M -16.97612,0.15689481 V 24.670552 H 11.30887 V 0.15689481 h -27.342157 z"
     id="path20"
     style="fill:url(#d);stroke-width:0.471416" />
  <path
     d="m -16.033759,1.1001991 h 8.0140813 v 3.7713316 h -8.0140813 z m 8.9564433,0 h 8.485497 v 3.7713316 h -8.485497 z m 9.428801,0 H 10.365566 V 4.8715307 H 2.3514853 Z"
     fill="#92e285"
     id="path21"
     style="stroke-width:0.471416" />
  <path
     d="m -16.033759,5.8143643 h 8.0140813 v 3.7713311 h -8.0140813 z m 18.3852443,0 H 10.365566 V 9.5856954 H 2.3514853 Z m -9.428801,4.7141647 h 8.485497 v 3.771332 h -8.485497 z m 9.428801,0 h 8.0140807 v 3.771332 H 2.3514853 Z m -18.3852443,0 h 8.0140813 v 3.771332 h -8.0140813 z m 8.9564433,4.714164 h 8.485497 v 3.771333 h -8.485497 z m -8.9564433,0 h 8.0140813 v 3.771333 h -8.0140813 z m 8.9564433,4.714166 h 8.485497 v 3.771332 h -8.485497 z m -8.9564433,0 h 8.0140813 v 3.771332 h -8.0140813 z"
     fill="#ccf4c6"
     id="path22"
     style="stroke-width:0.471416" />
  <path
     fill="url(#e)"
     d="M -5.1907077,13.357028 H 13.194536 V 26.55669 H -5.1907077 Z"
     id="path23"
     style="fill:url(#e);stroke-width:0.471416" />
  <path
     fill="url(#f)"
     d="M -4.2478747,14.299861 H 12.251703 V 25.613857 H -4.2478747 Z"
     id="path24"
     style="fill:url(#f);stroke-width:0.471416" />
  <path
     fill="#18a303"
     d="m -3.3055127,17.599776 h 3.29991599 V 25.14244 H -3.3055127 Z"
     id="path25"
     style="stroke-width:0.471416" />
  <path
     fill="url(#g)"
     d="m -2.8336247,24.671024 h 2.35708199 V 18.071193 H -2.8336247 Z"
     id="path26"
     style="fill:url(#g);stroke-width:0.471416" />
  <path
     fill="url(#h)"
     d="M 0.46629029,15.242693 H 3.7662063 V 25.14244 H 0.46629029 Z"
     id="path27"
     style="fill:url(#h);stroke-width:0.471416" />
  <path
     fill="url(#i)"
     d="M 0.93770729,24.671024 H 3.2947893 V 15.714111 H 0.93770729 Z"
     id="path28"
     style="fill:url(#i);stroke-width:0.471416" />
  <path
     fill="#c99c00"
     d="M 4.2371513,20.428275 H 7.5370667 V 25.14244 H 4.2371513 Z"
     id="path29"
     style="stroke-width:0.471416" />
  <path
     fill="url(#j)"
     d="M 4.7090393,24.671024 H 7.0661218 V 20.899692 H 4.7090393 Z"
     id="path30"
     style="fill:url(#j);stroke-width:0.471416" />
  <path
     fill="#43c330"
     d="M 8.0084832,18.542609 H 11.308399 V 25.14244 H 8.0084832 Z"
     id="path31"
     style="stroke-width:0.471416" />
  <path
     fill="url(#k)"
     d="M 8.4803711,24.671024 H 10.837454 V 19.014026 H 8.4803711 Z"
     id="path32"
     style="fill:url(#k);stroke-width:0.471416" />
  <path
     fill="#ccf4c6"
     d="m -7.0773157,5.8143643 h 8.485497 v 3.7713311 h -8.485497 z"
     id="path33"
     style="stroke-width:0.471416" />
</svg>
