<?xml version="1.0" encoding="UTF-8" standalone="no"?>
<!-- Created with Inkscape (http://www.inkscape.org/) -->

<svg
   width="70mm"
   height="70mm"
   viewBox="0 0 70 70"
   version="1.1"
   id="svg1"
   xml:space="preserve"
   inkscape:version="1.3.2 (091e20e, 2023-11-25, custom)"
   sodipodi:docname="logo base.svg"
   xmlns:inkscape="http://www.inkscape.org/namespaces/inkscape"
   xmlns:sodipodi="http://sodipodi.sourceforge.net/DTD/sodipodi-0.dtd"
   xmlns="http://www.w3.org/2000/svg"
   xmlns:svg="http://www.w3.org/2000/svg"><sodipodi:namedview
     id="namedview1"
     pagecolor="#ffffff"
     bordercolor="#000000"
     borderopacity="0.25"
     inkscape:showpageshadow="2"
     inkscape:pageopacity="0.0"
     inkscape:pagecheckerboard="0"
     inkscape:deskcolor="#d1d1d1"
     inkscape:document-units="mm"
     inkscape:zoom="1.06"
     inkscape:cx="278.77358"
     inkscape:cy="258.96226"
     inkscape:window-width="1440"
     inkscape:window-height="837"
     inkscape:window-x="1352"
     inkscape:window-y="-8"
     inkscape:window-maximized="1"
     inkscape:current-layer="layer1" /><defs
     id="defs1" /><g
     inkscape:label="Camada 1"
     inkscape:groupmode="layer"
     id="layer1"><path
       style="display:inline;fill:#010101;stroke:none"
       d="M 14.507152,3.643109 C 9.8870245,4.3647058 5.8756571,7.538753 4.3047695,11.993613 2.9825381,15.743311 3.6592352,20.510934 3.6592352,24.429029 v 24.077084 c 0,4.630414 -0.5391547,9.262282 2.3140833,13.229167 2.1795343,3.030225 5.4824945,5.217688 9.3275835,5.36455 8.775131,0.335162 17.669961,-0.07288 26.458334,-0.07288 4.892264,0 10.539012,0.782818 15.345833,-0.123716 4.806009,-0.906381 8.697491,-4.990938 9.816326,-9.665867 0.82432,-3.444339 0.237841,-7.580622 0.237841,-11.1125 V 24.164446 c 0,-4.984067 0.995171,-11.125407 -2.256718,-15.3458332 C 61.093383,3.8749707 56.27456,3.5269461 50.490486,3.5269461 H 26.677985 c -3.947687,0 -8.269055,-0.4932354 -12.170833,0.1161629 z"
       id="path1"
       inkscape:label="fundo-preto" /><path
       style="display:inline;fill:#33ccff;fill-opacity:1;stroke:#ffffff;stroke-width:9.64849"
       d="M 55.824443,252.76425 C 37.254267,251.1005 19.088779,234.28599 15.637514,215.56604 15.159214,212.9717 14.664826,175.40094 14.538873,132.07547 14.31172,53.938515 14.326108,53.252329 16.319205,47.169811 20.259796,35.143943 28.482075,25.47576 39.734517,19.636871 c 11.883766,-6.166483 8.989134,-5.990583 92.812653,-5.640006 82.75998,0.346129 83.52043,0.392326 95.01702,5.772227 7.20002,3.369297 16.82454,12.234344 20.38537,18.776767 5.41568,9.950395 5.42802,10.165651 5.49203,95.738091 0.0576,77.05985 0.0237,78.56192 -1.91338,84.65202 -4.80429,15.1046 -17.54685,27.97444 -32.18859,32.51011 -4.68234,1.45049 -12.55356,1.6255 -80.66037,1.79349 -41.509439,0.10237 -78.794099,-0.11152 -82.854807,-0.47532 z"
       id="path2"
       transform="scale(0.26458333)"
       inkscape:label="fundo-azul" /></g></svg>
