<?xml version="1.0" encoding="UTF-8" standalone="no"?>
<!-- Created with Inkscape (http://www.inkscape.org/) -->

<svg
   width="65mm"
   height="65mm"
   viewBox="0 0 65 65"
   version="1.1"
   id="svg1"
   xml:space="preserve"
   inkscape:version="1.3.2 (091e20e, 2023-11-25, custom)"
   sodipodi:docname="logowaze.svg"
   xmlns:inkscape="http://www.inkscape.org/namespaces/inkscape"
   xmlns:sodipodi="http://sodipodi.sourceforge.net/DTD/sodipodi-0.dtd"
   xmlns="http://www.w3.org/2000/svg"
   xmlns:svg="http://www.w3.org/2000/svg"><sodipodi:namedview
     id="namedview1"
     pagecolor="#ffffff"
     bordercolor="#000000"
     borderopacity="0.25"
     inkscape:showpageshadow="2"
     inkscape:pageopacity="0.0"
     inkscape:pagecheckerboard="0"
     inkscape:deskcolor="#d1d1d1"
     inkscape:document-units="mm"
     inkscape:zoom="1.3995495"
     inkscape:cx="143.61764"
     inkscape:cy="141.83135"
     inkscape:window-width="1360"
     inkscape:window-height="705"
     inkscape:window-x="-8"
     inkscape:window-y="130"
     inkscape:window-maximized="1"
     inkscape:current-layer="layer1" /><defs
     id="defs1" /><g
     inkscape:label="Camada 1"
     inkscape:groupmode="layer"
     id="layer1"><path
       style="display:none;fill:#000000;fill-opacity:1;stroke-width:0.264583"
       d="M 11.935333,64.042323 C 7.0219757,63.602122 2.2156903,59.153283 1.3025432,54.200297 1.175993,53.513878 1.0451861,43.573281 1.0118611,32.110084 0.95176018,11.436348 0.95556698,11.254795 1.4829072,9.6454624 2.5255219,6.4636191 4.7009999,3.905579 7.6782085,2.3607063 10.822454,0.72915769 10.056582,0.77569789 32.234888,0.86845479 c 21.896911,0.09158 22.098113,0.1038029 25.13992,1.52723501 1.905005,0.8914598 4.451492,3.2370035 5.393629,4.9680198 1.432898,2.6327068 1.436163,2.6896604 1.453099,25.3307014 0.01524,20.388751 0.0063,20.786174 -0.506248,22.397513 -1.271135,3.996425 -4.642604,7.40157 -8.516565,8.601633 -1.238869,0.383776 -3.321462,0.43008 -21.341389,0.474528 -10.982705,0.02709 -20.847605,-0.02951 -21.922001,-0.125762 z"
       id="path4"
       inkscape:label="fundo-preto" /><path
       style="display:inline;fill:#33ccff;fill-opacity:1;stroke-width:0.264583"
       d="M 11.935333,64.042323 C 7.0219757,63.602122 2.2156903,59.153283 1.3025432,54.200297 1.175993,53.513878 1.0451861,43.573281 1.0118611,32.110084 0.95176017,11.436348 0.95556697,11.254795 1.4829072,9.6454624 2.5255219,6.4636191 4.7009999,3.905579 7.6782085,2.3607063 10.822454,0.7291577 10.056582,0.7756979 32.234888,0.86845477 c 21.896911,0.09158 22.098113,0.1038029 25.13992,1.52723503 1.905005,0.8914598 4.451492,3.2370035 5.393629,4.9680198 1.432898,2.6327065 1.436163,2.6896604 1.453099,25.3307014 0.01524,20.388751 0.0063,20.786174 -0.506248,22.397513 -1.271135,3.996425 -4.642604,7.40157 -8.516565,8.601633 -1.238869,0.383776 -3.321462,0.43008 -21.341389,0.474528 -10.982705,0.02709 -20.847605,-0.02951 -21.922001,-0.125762 z"
       id="path2"
       inkscape:label="fundo-azul" /><path
       style="fill:#ffffff;fill-opacity:1;stroke-width:0.201972"
       d="m 29.657083,47.363055 c -1.575554,-1.731494 -2.289771,-2.612012 -4.61021,-2.575653 -1.563962,0.0245 -1.789376,0.770279 -3.625322,0.840611 l -1.133932,0.695772 -1.874935,-1.081077 c -2.265451,-1.306251 -5.596934,-6.062453 -5.596934,-6.981536 0,-0.05006 0.979957,-1.293252 1.474956,-1.532877 1.014826,-0.491268 1.352701,-0.939245 1.969141,-2.147568 0.355904,-0.697629 0.586834,-1.112091 0.738875,-4.503737 0.185866,-4.146209 0.661247,-5.481762 1.633602,-7.79583 2.167017,-5.157197 6.305838,-8.343319 11.797212,-9.99786 2.409717,-0.726043 6.512169,-0.700723 8.986446,-0.03211 5.379942,1.453801 9.865561,5.257821 12.292558,10.436899 2.891009,6.169253 1.626639,14.443229 -3.111805,19.628432 -1.80485,1.975014 -5.526595,4.94139 -8.229126,5.822061 -1.314961,0.428503 -4.575474,0.913929 -7.385616,0.158068 L 30.443705,48.22753 Z M 39.703939,37.86218 c 2.711963,-0.706379 5.150932,-2.657234 5.150932,-4.466074 0,-1.394116 -0.681104,-1.424818 -1.585071,-0.244383 -1.297014,1.693694 -1.457262,2.479556 -2.691442,3.087143 -1.100096,0.541573 -2.031596,0.641535 -3.265411,0.641535 -2.155698,0 -3.540802,-0.521115 -5.427549,-2.600523 -1.589153,-1.751426 -1.587195,-2.256449 -2.134939,-1.474439 -0.933881,1.333305 2.313012,3.777234 5.297088,4.851512 1.303203,0.469156 3.02586,0.629927 4.656392,0.205229 z M 31.840797,26.428111 c 0.617636,-0.566023 0.507471,-0.230966 0.4977,-0.939 -0.02527,-1.830652 -0.944904,-2.118742 -2.608797,-1.329173 -0.696624,0.330569 -0.932915,0.659483 -0.932915,1.45169 0,0.250729 0.206081,0.634973 0.721537,0.98144 0.6682,0.449133 1.273011,0.796803 2.322475,-0.164957 z m 12.693579,-0.504532 c -0.198218,0.02432 1.61749,-0.847627 0.05685,-1.654661 -1.403257,-0.725653 -2.231027,-0.447497 -2.231027,1.145415 0,0.590447 0.09298,0.524415 0.56425,1.061159 0.764628,0.794695 1.852899,-0.581715 1.609924,-0.551913 z"
       id="path5"
       sodipodi:nodetypes="ssscsssssssssssscsssssssssssssssssssss" /><path
       style="display:inline;fill:#000000"
       d="M 22.657468,53.895443 C 20.780351,52.905854 19.635894,51.158728 19.516291,49.100127 19.446311,47.895644 19.406069,47.842735 17.883022,46.952781 15.921395,45.806555 12.886219,42.758118 11.6919,40.73461 11.022344,39.600196 10.776615,38.867602 10.765859,37.9738 c -0.01453,-1.207212 -0.0068,-1.217946 0.994684,-1.384648 1.282172,-0.213422 2.303413,-0.960634 2.892868,-2.116626 0.364802,-0.715421 0.462696,-1.583547 0.46302,-4.106056 10e-4,-8.038713 3.740188,-14.461338 10.583745,-18.179353 2.64915,-1.439248 5.00674,-2.068096 8.36172,-2.2303449 7.09493,-0.3431177 13.21643,2.6528409 17.31999,8.4766859 5.41686,7.687685 4.67697,18.184529 -1.76439,25.031741 -1.06207,1.128983 -2.33024,2.326238 -2.81816,2.660567 -0.86205,0.590684 -0.88401,0.650956 -0.77691,2.131598 0.26044,3.600592 -1.94575,6.057377 -5.45258,6.071909 -2.19987,0.0091 -4.48255,-1.490932 -5.09562,-3.348553 -0.2867,-0.868693 -0.30918,-0.879012 -1.92321,-0.882582 -0.89822,-0.002 -1.89264,-0.07321 -2.20981,-0.158278 -0.47837,-0.128298 -0.67515,0.04146 -1.15434,0.995801 -0.74782,1.489357 -1.47614,2.273392 -2.690212,2.896005 -1.218298,0.62478 -3.712683,0.657654 -4.839186,0.06378 z m 16.302378,-6.555135 c 3.26748,-0.692599 7.49961,-3.258854 9.59853,-5.820305 5.05753,-6.172058 5.69009,-14.353107 1.61747,-20.919294 -2.71042,-4.369958 -6.77625,-7.204981 -11.7899,-8.220876 -8.33286,-1.688453 -16.741404,2.976385 -19.931981,11.05773 -0.961756,2.436012 -1.220205,4.012148 -1.221931,7.451863 -8.12e-4,1.617247 -0.127798,3.395361 -0.282191,3.951364 -0.353813,1.274156 -1.871083,2.973972 -3.028019,3.392325 l -0.884942,0.319999 0.505654,0.991164 c 0.737038,1.444714 3.22879,4.031736 5.062983,5.256564 l 1.593471,1.064079 1.183952,-1.042158 c 2.937696,-2.585862 7.291074,-1.575464 8.788554,2.039783 l 0.35538,0.857955 3.34134,-0.0046 c 1.83882,-0.0025 4.1284,-0.171424 5.09163,-0.375598 z m -4.00097,-8.862852 c -2.04829,-0.623061 -3.93489,-2.022183 -5.03187,-3.731673 -0.90944,-1.417239 -0.88725,-2.21974 0.0698,-2.523484 0.41608,-0.132059 0.69278,-0.01338 1.04796,0.449487 1.61768,2.108148 2.2879,2.741807 3.49402,3.30342 2.96305,1.379702 6.66146,0.270183 8.35935,-2.507791 0.73194,-1.197557 1.41323,-1.566751 1.99707,-1.08221 1.40745,1.168078 -1.79361,4.993354 -4.96719,5.935805 -1.42516,0.423226 -3.84193,0.499315 -4.9691,0.156446 z m -5.87042,-11.669639 c -0.67317,-0.673164 -0.7776,-0.942867 -0.64031,-1.653646 0.39313,-2.035388 3.07934,-2.49525 4.0143,-0.687224 0.49357,0.954449 0.26623,1.931015 -0.60998,2.620238 -0.94778,0.745526 -1.82809,0.65655 -2.76401,-0.279368 z m 13.4322,0.186383 c -1.42794,-1.427935 -0.52052,-3.615366 1.49977,-3.615366 0.71757,0 1.09266,0.173831 1.5043,0.69714 1.11085,1.412215 0.42576,3.159097 -1.35042,3.443413 -0.81045,0.129729 -1.08636,0.0421 -1.65365,-0.525187 z"
       id="path3" /></g></svg>
