<?xml version="1.0" encoding="UTF-8" standalone="no"?>
<!-- Created with Inkscape (http://www.inkscape.org/) -->

<svg
   width="60mm"
   height="70mm"
   viewBox="0 0 60 70"
   version="1.1"
   id="svg1"
   xml:space="preserve"
   sodipodi:docname="teste.svg"
   inkscape:version="1.3 (0e150ed6c4, 2023-07-21)"
   xmlns:inkscape="http://www.inkscape.org/namespaces/inkscape"
   xmlns:sodipodi="http://sodipodi.sourceforge.net/DTD/sodipodi-0.dtd"
   xmlns="http://www.w3.org/2000/svg"
   xmlns:svg="http://www.w3.org/2000/svg"><sodipodi:namedview
     id="namedview1"
     pagecolor="#ffffff"
     bordercolor="#000000"
     borderopacity="0.25"
     inkscape:showpageshadow="2"
     inkscape:pageopacity="0.0"
     inkscape:pagecheckerboard="0"
     inkscape:deskcolor="#d1d1d1"
     inkscape:document-units="mm"
     inkscape:zoom="1.3342372"
     inkscape:cx="230.09402"
     inkscape:cy="231.96775"
     inkscape:window-width="1920"
     inkscape:window-height="1009"
     inkscape:window-x="-8"
     inkscape:window-y="-8"
     inkscape:window-maximized="1"
     inkscape:current-layer="layer1" /><defs
     id="defs1" /><g
     inkscape:label="Camada 1"
     inkscape:groupmode="layer"
     id="layer1"><path
       id="rect11"
       style="fill:#ffffff;stroke-width:0.264583;paint-order:fill markers stroke"
       inkscape:label="fundo"
       d="m 6.234754,3.361729 36.231156,-0.396606 12.474143,12.527665 0.834281,20.455385 -0.611904,28.163704 -3.772882,2.923 H 7.424573 L 4.225666,64.100226 4.253936,6.37772 Z"
       sodipodi:nodetypes="cccccccccc" /><path
       style="fill:#fd2213;fill-opacity:1"
       d="m 7.2940031,67.694245 c -0.520759,-0.18617 -1.201453,-0.51683 -1.512655,-0.7348 -0.820189,-0.57449 -2.151565,-2.32035 -2.375136,-3.11457 -0.105852,-0.37604 -0.192459,-13.30433 -0.192459,-28.72953 0,-22.929103 0.06545,-28.2309952 0.358738,-29.0607212 0.46738,-1.3222342 1.700318,-2.7071542 3.055795,-3.4324772 1.077844,-0.576761 1.169651,-0.580111 17.9539109,-0.65517 11.973309,-0.05354 17.195973,0.01176 17.991667,0.224958 0.951545,0.254962 2.03643,1.206928 7.171835,6.2931552 3.869148,3.8320962 6.228057,6.3743272 6.542626,7.0510832 0.46766,1.006112 0.49222,2.209854 0.497744,24.395362 0.0044,17.64187 -0.07206,23.51764 -0.313297,24.07709 -0.625309,1.45017 -1.899603,2.79605 -3.23697,3.4188 l -1.338714,0.62337 -21.828125,-0.009 c -17.041034,-0.007 -22.0357749,-0.0833 -22.7749599,-0.34755 z m 45.2528019,-2.01354 c 0.564031,-0.28775 1.303428,-0.91282 1.643105,-1.38906 l 0.617595,-0.86589 0.07037,-23.53021 0.07037,-23.530221 -5.891203,-5.924504 C 45.816879,7.1823418 42.844329,4.3466416 42.451373,4.1392636 41.855209,3.8246456 39.029477,3.7624576 25.385748,3.7636886 c -9.914614,8.95e-4 -16.7203119,0.104028 -17.2889389,0.261997 -1.167156,0.324243 -2.559156,1.7276732 -2.9031,2.9269382 -0.351964,1.227227 -0.35378,54.8272912 -0.0019,56.0542312 0.292986,1.02158 1.093215,1.98034 2.255277,2.70207 0.757406,0.47041 1.784617,0.49303 22.4339799,0.49397 21.036534,9.6e-4 21.668837,-0.0136 22.665739,-0.52219 z"
       id="path1"
       sodipodi:nodetypes="sssssssssssssccssscccsssssssss"
       inkscape:label="logo" /><path
       d="m 11.62642,45.084764 c -0.696463,-0.360209 -1.049374,-0.920995 -1.135501,-1.804363 -0.179203,-1.837989 2.287548,-4.07898 7.144205,-6.490376 l 3.89452,-1.933687 1.502109,-3.020061 c 0.826153,-1.661033 2.166799,-4.791065 2.979225,-6.955638 1.454069,-3.874195 1.466583,-3.957773 0.802154,-5.357959 -1.162729,-2.450274 -1.838741,-5.17649 -1.843277,-7.433612 -0.01082,-5.6336571 4.659934,-6.8596581 6.077534,-1.595086 0.539153,2.00227 0.295962,4.419313 -0.911159,9.056186 l -0.84987,3.264568 1.651828,2.394423 c 0.908497,1.316933 2.346437,3.181771 3.195376,4.144086 1.469776,1.666013 1.576801,1.718081 2.796923,1.500795 0.768954,-0.136931 3.940461,-0.615124 5.927361,-0.63149 1.407977,-0.01161 2.871215,-0.06669 4.207077,0.378232 0.852619,0.283975 1.924603,0.597465 2.293687,1.416848 0.349166,0.775138 0.08985,1.843694 -0.434011,2.513244 -0.649047,0.829521 -1.840971,1.218846 -2.892962,1.270878 -2.966766,0.14674 -5.467965,-0.665074 -8.472488,-2.761497 l -2.160141,-1.507234 -2.488318,0.569876 c -1.368575,0.31343 -3.829528,0.963116 -5.468767,1.443728 -2.968638,0.870383 -2.987473,0.884835 -4.759814,3.649855 -1.900518,2.965016 -4.481963,5.95495 -6.193694,7.173808 -1.448314,1.031284 -3.629617,1.351818 -4.861992,0.714446 z m 3.138038,-1.366407 c 1.468795,-1.120304 6.299154,-7.418643 5.954145,-7.763652 -0.415241,-0.415224 -6.52187,3.031427 -8.177502,4.615475 -1.738702,1.663538 -2.128467,2.837008 -1.238052,3.727434 0.768829,0.768819 1.95401,0.570487 3.461409,-0.579257 z m 31.478125,-9.139799 c 0.5336,-0.283464 1.1756,-0.622273 1.360921,-1.197385 0.156625,-0.486074 0.0032,-1.117144 -0.343029,-1.493156 -0.914926,-0.99555 -2.521084,-1.070543 -3.862792,-1.238051 -1.247152,-0.155704 -2.514319,0.09264 -3.763311,0.232693 -1.192509,0.133707 -3.553029,0.579116 -3.553029,0.579116 l 2.00303,1.36689 c 1.7722,1.209382 3.945873,2.17057 6.120238,2.281267 0.701125,0.03569 1.417979,-0.202026 2.037972,-0.531374 z M 32.262608,31.824651 c 1.433351,-0.274703 2.673986,-0.555868 2.756959,-0.624799 0.08292,-0.0689 -0.612752,-0.992846 -1.546059,-2.05314 -0.933307,-1.060299 -2.259503,-2.79602 -2.947108,-3.857164 -0.687594,-1.061142 -1.294803,-1.884069 -1.34936,-1.828726 -0.05456,0.05535 -0.676845,1.555793 -1.382896,3.334334 -0.706039,1.778541 -1.631326,3.99679 -2.05619,4.929443 -0.424864,0.932652 -0.772483,1.777585 -0.772483,1.87762 0,0.100065 1.055477,-0.146662 2.345517,-0.548107 1.29003,-0.401504 3.51827,-0.954759 4.95162,-1.229461 z M 29.024063,16.397532 c 0.35407,-1.083797 0.735321,-2.194885 0.761074,-3.334764 0.03237,-1.43711 0.03778,-3.053436 -0.768662,-4.2433721 -0.399177,-0.588975 -1.135017,-1.35682 -1.809892,-1.131526 -1.519387,0.507208 -1.730027,2.4341661 -1.727289,4.4842481 0.0011,1.273201 0.437389,3.298267 0.889662,4.893185 0.281067,0.991214 1.101038,2.862193 1.125697,2.878611 0.20105,0.133891 1.129627,-2.322663 1.52941,-3.546382 z"
       style="fill:#fd2213;fill-opacity:1;stroke-width:1.52773"
       id="path1-6" /><path
       d="m 25.629419,56.572049 v -7.082018 l 2.375308,0.0087 c 4.814073,0.01695 7.125955,2.202595 7.125955,6.736908 0,2.773391 -1.18461,5.287275 -2.976147,6.315743 -0.765558,0.439486 -2.30527,0.801088 -3.895515,0.914874 l -2.629601,0.188145 z m 5.924453,3.907828 c 0.866198,-0.813761 1.7107,-3.595713 1.468056,-4.836107 -0.478024,-2.443786 -0.668873,-2.815917 -1.796967,-3.503744 -0.673727,-0.410785 -1.695279,-0.747538 -2.270101,-0.748314 l -1.04514,-0.0015 v 5.180404 5.180416 l 1.384673,-0.224699 c 0.761571,-0.123531 1.778346,-0.594525 2.259479,-1.046537 z m 6.506569,2.834705 c -0.148167,-0.148166 -0.269399,-3.319307 -0.269399,-7.046965 v -6.777586 h 3.610482 c 3.597819,0 3.610492,0.0028 3.610492,0.950129 0,0.91603 -0.08865,0.950131 -2.470345,0.950131 h -2.470322 v 2.090282 2.09028 h 2.280296 c 2.178968,0 2.280307,0.04224 2.280307,0.950132 0,0.907146 -0.102397,0.95011 -2.264311,0.95011 h -2.264322 l -0.111071,2.945406 c -0.09924,2.63231 -0.193451,2.957188 -0.886735,3.056431 -0.426666,0.06106 -0.896973,-0.01014 -1.04514,-0.15835 z M 14.987984,56.330947 v -6.840916 h 2.292515 c 2.8759,0 4.70497,0.745728 5.473293,2.231496 0.801504,1.549947 0.747237,3.025415 -0.16638,4.523887 -0.844481,1.385067 -2.058666,1.985787 -4.013682,1.985787 h -1.30544 v 2.470334 2.470322 h -1.140154 -1.140152 z m 5.385801,-0.628972 c 1.593528,-1.442134 0.285545,-4.311684 -1.965343,-4.311684 H 17.26829 v 2.470327 2.470329 h 1.205236 c 0.66289,0 1.518001,-0.283029 1.900259,-0.628972 z"
       style="fill:#fd2213;fill-opacity:1;stroke-width:1.43641"
       id="path1-2" /></g></svg>
